<?xml version="1.0" encoding="UTF-8"?>
<svg id="Camada_1" data-name="Camada 1" xmlns="http://www.w3.org/2000/svg" viewBox="0 0 527.72 282.92">
  <defs>
    <style>
      .cls-1 {
        fill: #1d1d1b;
      }
    </style>
  </defs>
  <g>
    <path class="cls-1" d="M44.81,281.75v-2.49l1.32.15c3.52,0,5.71-1.76,6.74-5.27V92.93c-1.03-3.37-2.93-5.13-5.86-5.42l-2.2.15v-2.34h31.49v188.82c1.32,3.52,3.52,5.27,6.88,5.27l1.32-.15v2.49h-39.7Z"/>
    <path class="cls-1" d="M132.55,274.13c1.32,3.52,3.52,5.27,6.88,5.27l1.32-.15v2.49h-39.7v-2.49l1.32.15c3.37,0,5.57-1.76,6.88-5.27v-116.02c-1.17-3.37-3.22-5.13-6.01-5.42l-2.2.15v-2.34h31.49v123.63ZM109.55,132.48c-2.93-2.93-4.39-6.45-4.39-10.69s1.46-7.62,4.39-10.69c2.93-2.93,6.45-4.39,10.69-4.39s7.62,1.46,10.55,4.39c2.93,3.08,4.39,6.59,4.39,10.69s-1.46,7.76-4.39,10.69-6.45,4.39-10.55,4.39-7.76-1.46-10.69-4.39Z"/>
    <path class="cls-1" d="M158.33,271.94l-.44-.44,9.08-9.23,1.61,1.61-.59.44c-.44.29-.73.73-1.17,1.32-.88,1.17-1.32,2.34-1.32,3.52,0,.73.15,1.46.44,2.34,3.96,3.66,8.2,5.57,13.04,5.57,4.54,0,9.23-1.03,13.77-3.22,5.27-2.49,7.91-6.45,7.91-11.72,0-9.38-10.84-24.61-32.52-45.7-6.88-7.32-11.87-14.79-14.79-22.56-2.2-5.42-3.22-10.69-3.22-15.53,0-2.05.44-5.27,1.32-9.52s4.25-8.35,10.11-12.6,14.21-6.3,25.2-6.3,18.6,8.5,20.8,11.13l.29.44-3.81,3.81c-.15.29-1.9,2.05-5.13,5.42l-1.76-1.61.59-.44c1.61-1.32,2.49-2.93,2.49-4.83,0-.73-.15-1.46-.44-2.34-3.96-3.81-8.35-5.71-13.04-5.71s-9.23,1.03-13.77,3.22c-5.27,2.64-7.91,6.59-7.91,11.72,0,9.52,10.84,24.76,32.52,45.7,6.88,7.47,11.87,14.94,14.79,22.71,2.2,5.42,3.22,10.55,3.22,15.38,0,2.05-.44,5.27-1.17,9.52-.88,4.25-4.25,8.5-10.11,12.6-6.01,4.25-14.36,6.3-25.34,6.3s-18.6-8.35-20.65-10.99Z"/>
    <path class="cls-1" d="M236.26,165.3c-1.61-3.52-4.54-5.27-8.79-5.27l-2.2.15v-2.34h-7.47v-7.18h18.46v-3.52c4.1-2.2,7.32-4.83,9.52-8.2,3.81-5.57,6.01-11.57,6.59-18.16l.29-3.37h6.88v33.25h25.93v7.18h-25.93v91.11l.15,2.64c.44,6.88,1.61,23.44,8.2,23.44h11.87v7.18h-11.87l-3.22-.59c-8.2-1.17-28.42-8.2-28.42-32.67v-83.64Z"/>
    <path class="cls-1" d="M304.38,272.67c-6.3-6.01-11.43-14.21-15.23-24.32s-5.71-21.39-5.71-33.69,2.2-24.61,6.59-35.6c3.81-9.52,8.79-17.14,14.94-22.85s12.89-8.5,20.36-8.5c15.09,0,27.98,12.16,35.6,31.2,3.66,9.52,5.86,20.36,6.3,32.23h-60.35v3.52c0,16.41,2.64,30.32,7.76,41.9s11.28,17.29,18.46,17.29c9.38,0,17.43-10.55,22.27-27.39h6.88c-3.66,10.69-8.64,19.19-15.09,25.63-6.59,6.45-13.77,9.67-21.83,9.67s-14.65-3.08-20.95-9.08ZM343.64,203.97c-.88-14.06-2.93-25.63-6.3-34.86-3.37-9.08-7.47-13.62-12.01-13.62s-8.35,4.54-11.72,13.77-5.42,20.8-6.45,34.72h36.47Z"/>
    <path class="cls-1" d="M376.45,281.75v-2.49l1.32.15c3.37,0,5.57-1.76,6.88-5.27v-112.21c-1.17-3.66-3.52-5.57-6.88-5.57l-1.32.29v-2.34h31.64v15.67c6.15-13.04,15.38-19.48,27.69-19.48,7.76,0,14.21,1.76,19.63,5.13,8.06,5.13,12.01,14.21,12.01,27.25v91.26c1.32,3.52,3.52,5.27,6.74,5.27l1.32-.15v2.49h-39.7v-2.49l1.46.15c3.22,0,5.42-1.76,6.74-5.27v-91.26c0-6.59-.44-11.87-1.46-15.67-1.76-6.3-5.42-9.38-10.84-9.38-3.08,0-6.15,1.03-8.94,3.22-5.57,4.25-10.4,10.55-14.65,18.6v94.48c1.03,3.52,3.22,5.27,6.74,5.27l1.32-.15v2.49h-39.7Z"/>
    <path class="cls-1" d="M490.12,262.95c0-10.5,8.3-18.8,18.8-18.8s18.8,8.3,18.8,18.8-8.3,18.8-18.8,18.8-18.8-8.3-18.8-18.8Z"/>
  </g>
  <text/>
</svg>