<svg width="91" height="38" viewBox="0 0 91 38" fill="none" xmlns="http://www.w3.org/2000/svg">
<path d="M0.00188477 37.0147V36.5455L0.250622 36.5737C0.91392 36.5737 1.3266 36.2421 1.52069 35.5807V1.43401C1.3266 0.798973 0.968566 0.467324 0.416446 0.412678L0.00188477 0.440943V0H5.93577V35.5807C6.1845 36.244 6.59907 36.5737 7.23221 36.5737L7.48095 36.5455V37.0147H0H0.00188477Z" fill="white"/>
<path d="M16.5353 35.5789C16.784 36.2422 17.1986 36.572 17.8317 36.572L18.0805 36.5437V37.0129H10.5995V36.5437L10.8483 36.572C11.4833 36.572 11.8979 36.2403 12.1447 35.5789V13.7164C11.9242 13.0814 11.5379 12.7497 11.0122 12.6951L10.5976 12.7234V12.2824H16.5315V35.5789H16.5353ZM12.2012 8.88678C11.6491 8.33466 11.374 7.67137 11.374 6.87239C11.374 6.07342 11.6491 5.4365 12.2012 4.858C12.7534 4.30588 13.4167 4.03076 14.2156 4.03076C15.0146 4.03076 15.6515 4.30588 16.2036 4.858C16.7558 5.43839 17.0309 6.0998 17.0309 6.87239C17.0309 7.64498 16.7558 8.33466 16.2036 8.88678C15.6515 9.4389 14.9882 9.71402 14.2156 9.71402C13.443 9.71402 12.7534 9.4389 12.2012 8.88678Z" fill="white"/>
<path d="M21.3933 35.1662L21.3104 35.0833L23.0214 33.344L23.3248 33.6474L23.2136 33.7303C23.1307 33.7849 23.076 33.8679 22.9931 33.979C22.8273 34.1995 22.7444 34.42 22.7444 34.6423C22.7444 34.7799 22.7726 34.9174 22.8273 35.0833C23.5735 35.7729 24.3725 36.1329 25.2845 36.1329C26.14 36.1329 27.0238 35.9388 27.8793 35.5261C28.8724 35.0569 29.3698 34.3107 29.3698 33.3176C29.3698 31.5501 27.3272 28.6802 23.2419 24.706C21.9454 23.3267 21.0051 21.9191 20.4549 20.4549C20.0403 19.4336 19.8481 18.4405 19.8481 17.5285C19.8481 17.1422 19.931 16.5354 20.0968 15.7346C20.2627 14.9337 20.8977 14.1611 22.0019 13.3602C23.1062 12.5594 24.6796 12.1731 26.7505 12.1731C28.8215 12.1731 30.2555 13.7748 30.67 14.2704L30.7247 14.3533L30.0067 15.0713C29.9785 15.1259 29.6487 15.4576 29.0401 16.0926L28.7084 15.7892L28.8196 15.7063C29.123 15.4576 29.2888 15.1542 29.2888 14.7961C29.2888 14.6586 29.2605 14.521 29.2059 14.3552C28.4597 13.6373 27.6324 13.2792 26.7487 13.2792C25.8649 13.2792 25.0094 13.4733 24.1539 13.886C23.1608 14.3835 22.6634 15.1278 22.6634 16.0945C22.6634 17.8884 24.706 20.7602 28.7913 24.706C30.0878 26.1137 31.0281 27.5213 31.5783 28.9854C31.9929 30.0068 32.1851 30.9735 32.1851 31.8836C32.1851 32.2699 32.1022 32.8767 31.9646 33.6775C31.7988 34.4784 31.1637 35.2792 30.0595 36.0518C28.927 36.8527 27.3535 37.239 25.2845 37.239C23.2155 37.239 21.7796 35.6655 21.3933 35.1681V35.1662Z" fill="white"/>
<path d="M36.0782 15.0711C35.7748 14.4078 35.2227 14.0781 34.4218 14.0781L34.0073 14.1063V13.6654H32.5996V12.3124H36.0782V11.6491C36.8508 11.2345 37.4575 10.739 37.8721 10.1039C38.5901 9.05433 39.0046 7.92371 39.1139 6.68191L39.1686 6.04688H40.465V12.3124H45.3512V13.6654H40.465V30.8339L40.4933 31.3314C40.5762 32.6278 40.7967 35.7483 42.0385 35.7483H44.2752V37.1013H42.0385L41.4317 36.9901C39.8865 36.7696 36.0763 35.4449 36.0763 30.8339V15.073L36.0782 15.0711Z" fill="white"/>
<path d="M48.9145 35.3037C47.7273 34.1712 46.7606 32.626 46.0446 30.7209C45.3285 28.8158 44.9686 26.6902 44.9686 24.3725C44.9686 22.0547 45.3832 19.735 46.2104 17.6641C46.9284 15.8702 47.8668 14.4343 49.0257 13.3583C50.1845 12.2823 51.4546 11.7566 52.8622 11.7566C55.7058 11.7566 58.1347 14.048 59.5706 17.6358C60.2603 19.4297 60.6748 21.4724 60.7578 23.7092H49.3856V24.3725C49.3856 27.4647 49.8831 30.0859 50.8479 32.268C51.8126 34.4501 52.9734 35.526 54.3264 35.526C56.0939 35.526 57.6109 33.538 58.5229 30.3647H59.8193C59.1297 32.3791 58.1912 33.9809 56.9758 35.1944C55.734 36.4098 54.381 37.0166 52.8622 37.0166C51.3434 37.0166 50.1016 36.4362 48.9145 35.3056V35.3037ZM56.3125 22.3581C56.1467 19.7086 55.7604 17.5284 55.1254 15.7891C54.4903 14.0781 53.7177 13.2226 52.8622 13.2226C52.0067 13.2226 51.2888 14.0781 50.6538 15.8174C50.0187 17.5567 49.6324 19.7369 49.4383 22.3599H56.3106L56.3125 22.3581Z" fill="white"/>
<path d="M62.4952 37.0146V36.5454L62.7439 36.5736C63.3789 36.5736 63.7935 36.242 64.0404 35.5806V14.4361C63.8199 13.7464 63.3771 13.3865 62.7439 13.3865L62.4952 13.4411V13.0002H68.4573V15.953C69.6162 13.4958 71.3555 12.2822 73.6751 12.2822C75.1374 12.2822 76.3528 12.6139 77.3742 13.2489C78.893 14.2156 79.6373 15.9266 79.6373 18.3838V35.5806C79.886 36.2439 80.3006 36.5736 80.9074 36.5736L81.1561 36.5454V37.0146H73.6751V36.5454L73.9503 36.5736C74.557 36.5736 74.9716 36.242 75.2203 35.5806V18.3838C75.2203 17.142 75.1374 16.1471 74.9452 15.431C74.6136 14.2439 73.9239 13.6635 72.9025 13.6635C72.3222 13.6635 71.7437 13.8576 71.2179 14.2702C70.1683 15.0711 69.2582 16.2582 68.4573 17.7752V35.5787C68.6514 36.242 69.0641 36.5718 69.7274 36.5718L69.9761 36.5435V37.0127H62.4952V37.0146Z" fill="white"/>
<path d="M83.9148 33.4721C83.9148 31.4935 85.4788 29.9294 87.4574 29.9294C89.436 29.9294 91 31.4935 91 33.4721C91 35.4507 89.436 37.0147 87.4574 37.0147C85.4788 37.0147 83.9148 35.4507 83.9148 33.4721Z" fill="white"/>
</svg>
